<?xml version="1.0" encoding="UTF-8"?>
<svg id="Layer_2" data-name="Layer 2" xmlns="http://www.w3.org/2000/svg" viewBox="0 0 101.05 110.15">
  <defs>
    <style>
      .cls-1 {
        fill: #2b2e8c;
        stroke-width: 0px;
      }
    </style>
  </defs>
  <g id="Layer_1-2" data-name="Layer 1">
    <path class="cls-1" d="M94.97,91.59h-2.91c1.08-1.45,1.73-3.25,1.73-5.2,0-4.3-3.14-7.88-7.24-8.58,1.14-1.47,1.83-3.32,1.83-5.32,0-4.24-3.05-7.78-7.07-8.55,1.16-1.48,1.85-3.33,1.85-5.35,0-3.77-2.42-7-5.78-8.2,1.33-1.53,2.13-3.52,2.13-5.7,0-4.8-3.91-8.71-8.71-8.71h-9.36l-1.1-8.42,4.98,2.06c1.07.44,2.2.67,3.33.67s2.26-.22,3.33-.67c2.15-.89,3.82-2.56,4.71-4.71,1.84-4.44-.28-9.53-4.71-11.37L40.9.67c-2.15-.89-4.51-.89-6.66,0-2.15.89-3.82,2.56-4.71,4.71-.89,2.15-.89,4.51,0,6.66.89,2.15,2.56,3.82,4.71,4.71l7.47,3.09-2.1,16.14h-9.36c-4.8,0-8.71,3.91-8.71,8.71,0,2.18.81,4.17,2.13,5.7-3.37,1.2-5.78,4.42-5.78,8.2,0,2.01.69,3.87,1.85,5.35-4.02.77-7.07,4.31-7.07,8.55,0,2,.68,3.85,1.83,5.32-4.11.7-7.24,4.28-7.24,8.58,0,1.94.64,3.75,1.73,5.2h-2.91c-3.35,0-6.07,2.72-6.07,6.07v6.41c0,3.35,2.72,6.07,6.07,6.07h88.91c3.35,0,6.07-2.72,6.07-6.07v-6.41c0-3.35-2.72-6.07-6.07-6.07h0ZM32.76,10.7c-.53-1.28-.53-2.7,0-3.98s1.53-2.28,2.81-2.81c.64-.26,1.31-.4,1.99-.4s1.35.13,1.99.4l31.08,12.87c2.65,1.1,3.91,4.14,2.81,6.79-.53,1.28-1.53,2.28-2.81,2.81-1.28.53-2.7.53-3.98,0l-31.08-12.87c-1.28-.53-2.28-1.53-2.81-2.81h0ZM45.06,21.24l11.54,4.78,1.3,9.97h-14.76l1.92-14.75h0ZM30.24,39.5h40.56c2.87,0,5.2,2.33,5.2,5.2s-2.33,5.2-5.2,5.2H30.24c-2.87,0-5.2-2.34-5.2-5.2s2.33-5.2,5.2-5.2h0ZM26.59,53.4h47.86c2.87,0,5.2,2.33,5.2,5.2s-2.33,5.2-5.2,5.2H26.59c-2.87,0-5.2-2.33-5.2-5.2s2.33-5.2,5.2-5.2ZM21.37,67.3h58.3c2.87,0,5.2,2.33,5.2,5.2s-2.33,5.2-5.2,5.2H21.37c-2.87,0-5.2-2.33-5.2-5.2s2.33-5.2,5.2-5.2ZM10.76,86.39c0-2.87,2.33-5.2,5.2-5.2h69.13c2.87,0,5.2,2.33,5.2,5.2s-2.33,5.2-5.2,5.2H15.95c-2.87,0-5.2-2.33-5.2-5.2ZM97.54,104.08c0,1.41-1.15,2.56-2.56,2.56H6.06c-1.41,0-2.56-1.15-2.56-2.57v-6.41c0-1.41,1.15-2.56,2.56-2.56h88.91c1.41,0,2.56,1.15,2.56,2.56v6.42Z"/>
  </g>
</svg>