<?xml version="1.0" encoding="UTF-8"?>
<svg id="Layer_2" data-name="Layer 2" xmlns="http://www.w3.org/2000/svg" viewBox="0 0 109.45 109.44">
  <defs>
    <style>
      .cls-1 {
        fill: #fbb913;
        stroke-width: 0px;
      }
    </style>
  </defs>
  <g id="Layer_1-2" data-name="Layer 1">
    <g>
      <path class="cls-1" d="M99.79,87.34c-3.45-3.45-9.03-3.45-12.48,0-3.45,3.45-3.45,9.03,0,12.48,3.45,3.45,9.03,3.45,12.48,0,3.45-3.45,3.45-9.03,0-12.48ZM97.29,97.31c-2.07,2.07-5.43,2.07-7.5,0-2.07-2.07-2.07-5.43,0-7.5,2.07-2.07,5.43-2.07,7.5,0,2.07,2.09,2.07,5.43,0,7.5Z"/>
      <path class="cls-1" d="M104.79,82.34c-4.89-4.89-12.17-5.9-18.08-3.1l-11.68-11.68,2.5-2.5-5.71-5.71c9.33-15,7.5-34.95-5.52-47.97C51.13-3.79,26.55-3.79,11.38,11.38c-15.17,15.17-15.17,39.76,0,54.93,13.02,13.02,32.97,14.85,47.97,5.52l5.71,5.71,2.5-2.5,11.68,11.68c-2.82,5.9-1.79,13.19,3.1,18.08,6.21,6.21,16.27,6.21,22.47,0,6.18-6.18,6.18-16.25-.02-22.45ZM13.86,13.88C25.49,2.24,43.2.47,56.74,8.45L8.43,56.76C.43,43.2,2.22,25.51,13.86,13.88ZM13.86,63.8c-1.27-1.27-2.39-2.65-3.43-4.05L59.73,10.43c1.4,1.03,2.78,2.15,4.05,3.43,1.27,1.27,2.39,2.65,3.43,4.05l-49.3,49.35c-1.4-1.06-2.78-2.15-4.05-3.45ZM20.9,69.23l48.31-48.31c7.99,13.53,6.21,31.25-5.43,42.88-11.61,11.64-29.33,13.42-42.88,5.43ZM65.03,72.55l-2.76-2.76c1.4-1.06,2.74-2.22,4.01-3.49,1.27-1.27,2.43-2.61,3.49-4.01l2.76,2.76-7.5,7.5ZM70.03,72.55l2.5-2.5,11.12,11.12c-.45.37-.91.75-1.31,1.19-.43.43-.82.86-1.19,1.31l-11.12-11.12ZM102.29,102.31c-4.83,4.83-12.65,4.83-17.48,0s-4.83-12.65,0-17.48c4.83-4.83,12.65-4.83,17.48,0s4.83,12.65,0,17.48Z"/>
      <rect class="cls-1" x="37.05" y="37.06" width="3.53" height="3.53" transform="translate(-16.09 38.82) rotate(-45)"/>
      <rect class="cls-1" x="43.3" y="30.84" width="3.53" height="3.53" transform="translate(-9.85 41.42) rotate(-45)"/>
      <rect class="cls-1" x="49.54" y="24.59" width="3.53" height="3.53" transform="translate(-3.61 44) rotate(-45)"/>
      <rect class="cls-1" x="55.78" y="18.34" width="3.53" height="3.53" transform="translate(2.64 46.58) rotate(-45)"/>
      <rect class="cls-1" x="30.81" y="43.32" width="3.53" height="3.53" transform="translate(-22.34 36.24) rotate(-45)"/>
      <rect class="cls-1" x="24.57" y="49.56" width="3.53" height="3.53" transform="translate(-28.58 33.66) rotate(-45)"/>
      <rect class="cls-1" x="18.33" y="55.79" width="3.53" height="3.53" transform="translate(-34.81 31.07) rotate(-45)"/>
    </g>
  </g>
</svg>