<?xml version="1.0" encoding="UTF-8"?>
<svg id="Layer_2" data-name="Layer 2" xmlns="http://www.w3.org/2000/svg" viewBox="0 0 189.42 209.94">
  <defs>
    <style>
      .cls-1 {
        letter-spacing: -.01em;
      }

      .cls-2 {
        font-size: 23px;
      }

      .cls-3 {
        letter-spacing: 0em;
      }

      .cls-4 {
        letter-spacing: -.02em;
      }

      .cls-5 {
        letter-spacing: 0em;
      }

      .cls-6 {
        stroke-width: 0px;
      }

      .cls-6, .cls-7 {
        fill: #d1d3d4;
      }

      .cls-8 {
        letter-spacing: -.02em;
      }

      .cls-7 {
        font-family: Montserrat-Medium, Montserrat;
        font-weight: 500;
      }

      .cls-9 {
        font-size: 20px;
      }

      .cls-10 {
        letter-spacing: 0em;
      }

      .cls-11 {
        letter-spacing: 0em;
      }
    </style>
  </defs>
  <g id="Layer_1-2" data-name="Layer 1">
    <g>
      <path class="cls-6" d="M131.99,56.84c-5.17-5.17-11.24-9.24-16.62-11.27,4.21-4.84,6.77-11.13,6.77-18.03,0-2.16-.25-4.3-.75-6.38,3.29-2.07,5.34-5.69,5.34-9.69,0-6.33-5.15-11.47-11.47-11.47-2.94,0-5.76,1.16-7.88,3.17-7.89-4.15-17.66-4.15-25.55,0-2.12-2.01-4.94-3.17-7.88-3.17-6.33,0-11.47,5.15-11.47,11.47,0,3.99,2.04,7.61,5.34,9.69-.5,2.08-.75,4.22-.75,6.38,0,6.9,2.57,13.19,6.77,18.03-5.37,2.03-11.45,6.1-16.62,11.27-5.23,5.23-5.23,13.77,0,19.02,1.71,1.71,3.82,2.83,6.06,3.42-4.93,4.13-6.84,11.78-4.21,19.01,2.63,7.22,8.99,11.86,15.42,11.86,1.51,0,3.02-.25,4.47-.79,4.21-1.53,7.2-5.07,8.53-9.41,2.29.68,4.65,1.02,7.09,1.02s4.81-.34,7.09-1.02c1.33,4.34,4.32,7.88,8.53,9.41,1.47.53,2.97.78,4.47.78,6.43,0,12.79-4.63,15.42-11.86,2.63-7.23.73-14.87-4.2-19,2.24-.59,4.35-1.71,6.06-3.42,5.23-5.25,5.23-13.79,0-19.02h0ZM71.38,17.85c-2.62-1.06-4.31-3.56-4.31-6.37,0-3.8,3.09-6.88,6.88-6.88,2.2,0,4.23,1.04,5.55,2.85.71.97,2.04,1.23,3.06.6,7.28-4.51,16.81-4.51,24.09,0,1.02.64,2.36.37,3.06-.6,1.32-1.81,3.34-2.85,5.55-2.85,3.8,0,6.88,3.09,6.88,6.88,0,2.81-1.69,5.32-4.31,6.37-1.11.45-1.69,1.67-1.33,2.82.7,2.22,1.05,4.53,1.05,6.87,0,12.65-10.29,22.95-22.95,22.95s-22.95-10.29-22.95-22.95c0-2.34.35-4.66,1.05-6.87.36-1.14-.22-2.37-1.33-2.82h0ZM60.46,60.1c5.27-5.27,11.64-9.35,16.69-10.8-4.8,6.73-7.58,15.78-7.74,25.48-3.14.98-6.58.19-8.94-2.16-3.44-3.47-3.44-9.09,0-12.53h0ZM77.42,105.05c-5.36,1.95-11.64-1.79-14.02-8.33-2.38-6.54.04-13.44,5.39-15.39.96-.35,1.95-.52,2.94-.52,4.54,0,9.13,3.48,11.08,8.84,2.38,6.54-.04,13.44-5.39,15.39h0ZM102.1,88.09c-.88,2.43-1.24,4.9-1.16,7.27-4.09,1.32-8.58,1.32-12.67,0,.08-2.37-.27-4.84-1.16-7.27-2.32-6.37-7.53-10.7-13.14-11.65,0-.23-.02-.46-.02-.72,0-9.16,2.7-18.01,7.23-24.17,3.97,2.23,8.55,3.51,13.42,3.51s9.45-1.29,13.42-3.51c4.54,6.15,7.23,15.01,7.23,24.17,0,.26-.01.48-.02.71-5.61.95-10.83,5.28-13.14,11.65h0ZM125.82,96.72c-2.38,6.54-8.68,10.27-14.02,8.33-5.35-1.95-7.77-8.85-5.39-15.39,1.96-5.36,6.54-8.84,11.08-8.84.99,0,1.98.17,2.94.52,5.35,1.95,7.77,8.85,5.39,15.39h0ZM128.75,72.61c-2.36,2.36-5.8,3.16-8.94,2.18-.17-9.7-2.94-18.75-7.74-25.48,5.05,1.45,11.41,5.53,16.69,10.8,3.44,3.44,3.44,9.06,0,12.51h0ZM103.79,26.39c1.27,0,2.29-1.03,2.29-2.29v-2.29c0-1.27-1.03-2.29-2.29-2.29s-2.29,1.03-2.29,2.29v2.29c0,1.27,1.03,2.29,2.29,2.29ZM85.43,26.39c1.27,0,2.29-1.03,2.29-2.29v-2.29c0-1.27-1.03-2.29-2.29-2.29s-2.29,1.03-2.29,2.29v2.29c0,1.27,1.03,2.29,2.29,2.29ZM90.5,37.45c.54.49,1.16.86,1.82,1.12v1.36c-1.61-.25-3.2-.74-4.67-1.51-1.13-.59-2.51-.16-3.1.97-.59,1.12-.16,2.51.97,3.1,2.83,1.48,5.97,2.27,9.1,2.27s6.28-.78,9.1-2.27c1.12-.59,1.55-1.97.97-3.1-.59-1.12-1.97-1.56-3.1-.97-1.47.77-3.05,1.26-4.67,1.51v-1.36c.65-.26,1.27-.63,1.81-1.12l1.09-.99c1.59-1.44,2.11-3.56,1.35-5.52-.8-2.07-2.82-3.4-5.14-3.4h-2.82c-2.32,0-4.34,1.33-5.14,3.4-.76,1.96-.24,4.07,1.35,5.52l1.09.98h0ZM92.34,32.6c.09-.22.36-.47.86-.47h2.82c.5,0,.77.24.86.47.06.14.05.28-.15.47l-1.09.99c-.55.5-1.5.5-2.05,0l-1.09-.98c-.21-.19-.22-.33-.16-.47h0Z"/>
      <text class="cls-7" transform="translate(61.65 174.48)"><tspan class="cls-2"><tspan x="0" y="0">J</tspan><tspan class="cls-3" x="11.8" y="0">r</tspan><tspan x="21" y="0">. </tspan><tspan class="cls-8" x="32.41" y="0">K</tspan><tspan x="48.37" y="0">G</tspan></tspan><tspan class="cls-9"><tspan x="-61.65" y="30.2" xml:space="preserve"> (</tspan><tspan class="cls-5" x="-49.53" y="30.2">A</tspan><tspan x="-34.99" y="30.2">ges 4 </tspan><tspan class="cls-4" x="25.21" y="30.2">t</tspan><tspan class="cls-11" x="33.13" y="30.2">o 5 </tspan><tspan class="cls-1" x="68.07" y="30.2">ye</tspan><tspan x="90.89" y="30.2">a</tspan><tspan class="cls-10" x="102.85" y="30.2">r</tspan><tspan x="110.99" y="30.2">s)</tspan></tspan></text>
    </g>
  </g>
</svg>