<?xml version="1.0" encoding="UTF-8"?>
<svg id="Layer_2" data-name="Layer 2" xmlns="http://www.w3.org/2000/svg" viewBox="0 0 182.1 210.06">
  <defs>
    <style>
      .cls-1 {
        font-family: Montserrat-Medium, Montserrat;
        font-weight: 500;
      }

      .cls-1, .cls-2 {
        fill: #f37021;
      }

      .cls-3 {
        font-size: 23px;
      }

      .cls-4 {
        letter-spacing: 0em;
      }

      .cls-5 {
        letter-spacing: -.02em;
      }

      .cls-6 {
        letter-spacing: 0em;
      }

      .cls-7 {
        letter-spacing: -.01em;
      }

      .cls-8 {
        letter-spacing: 0em;
      }

      .cls-2 {
        stroke-width: 0px;
      }

      .cls-9 {
        letter-spacing: -.01em;
      }

      .cls-10 {
        letter-spacing: 0em;
      }

      .cls-11 {
        letter-spacing: 0em;
      }

      .cls-12 {
        font-size: 20px;
      }

      .cls-13 {
        letter-spacing: -.02em;
      }
    </style>
  </defs>
  <g id="Layer_1-2" data-name="Layer 1">
    <g>
      <path class="cls-2" d="M133.57,52.53h-16.32c1.59-2.09,2.56-4.68,2.56-7.5V12.51c0-6.89-5.61-12.51-12.51-12.51h-32.52c-6.89,0-12.51,5.61-12.51,12.51v32.52c0,2.82.98,5.41,2.56,7.5h-16.32c-6.89,0-12.51,5.61-12.51,12.51v32.52c0,6.89,5.61,12.51,12.51,12.51h32.52c4.11,0,7.72-2.02,10.01-5.08,2.28,3.06,5.9,5.08,10.01,5.08h32.52c6.89,0,12.51-5.61,12.51-12.51v-32.52c0-6.89-5.61-12.51-12.51-12.51h0ZM88.55,97.56c0,4.14-3.37,7.5-7.5,7.5h-32.52c-4.14,0-7.5-3.37-7.5-7.5v-32.52c0-4.14,3.37-7.5,7.5-7.5h32.52c4.14,0,7.5,3.37,7.5,7.5v32.52ZM74.79,52.53c-4.14,0-7.5-3.37-7.5-7.5V12.51c0-4.14,3.37-7.5,7.5-7.5h32.52c4.14,0,7.5,3.37,7.5,7.5v32.52c0,4.14-3.37,7.5-7.5,7.5h-32.52ZM141.08,97.56c0,4.14-3.37,7.5-7.5,7.5h-32.52c-4.14,0-7.5-3.37-7.5-7.5v-32.52c0-4.14,3.37-7.5,7.5-7.5h32.52c4.14,0,7.5,3.37,7.5,7.5v32.52ZM128.51,84.62c-2.77.63-5.56-.78-6.74-3.43-.88-1.96-.54-4.4.84-6.05.7-.83,1.54-1.44,2.51-1.8,1.48-.55,2.47-1.91,2.52-3.48.05-1.5-.81-2.87-2.19-3.48-2.8-1.25-5.81-1.63-8.93-1.13-5.81.92-10.68,4.83-12.69,10.21-1.73,4.61-1.34,9.68,1.06,13.89,2.41,4.22,6.53,7.12,11.3,7.96.93.16,1.87.24,2.8.24,5.36,0,10.45-2.66,13.5-7.23.85-1.27.84-2.91-.03-4.16-.88-1.28-2.44-1.89-3.96-1.54h0ZM117.06,92.38c-3.31-.58-6.16-2.6-7.83-5.51-1.69-2.97-1.95-6.39-.72-9.66,1.39-3.69,4.75-6.38,8.79-7.02.62-.1,1.22-.15,1.83-.15.51,0,1.01.04,1.51.1-.67.51-1.29,1.1-1.86,1.78-2.62,3.13-3.23,7.56-1.58,11.29,1.71,3.85,5.26,6.26,9.21,6.54-2.52,2.22-5.95,3.23-9.35,2.64h0ZM70.48,68.5c-2.05,0-4.01.58-5.7,1.67-1.68-1.08-3.65-1.67-5.7-1.67-2.82,0-5.47,1.1-7.47,3.1-4.12,4.12-4.12,10.82,0,14.93l7.86,7.86c1.46,1.46,3.38,2.19,5.31,2.19s3.84-.73,5.31-2.19l7.86-7.86c4.12-4.12,4.12-10.82,0-14.93-2-2-4.65-3.1-7.47-3.1h.01ZM74.41,83l-7.86,7.86c-.97.97-2.56.97-3.54,0l-7.86-7.86c-2.17-2.17-2.17-5.69,0-7.86,1.05-1.05,2.45-1.63,3.93-1.63s2.88.58,3.93,1.63c.94.94,2.6.94,3.54,0,2.1-2.1,5.76-2.11,7.86,0,2.17,2.17,2.17,5.69,0,7.86ZM102.84,20.82l-5.26-1.22-2.78-4.62c-.8-1.33-2.2-2.12-3.75-2.12s-2.95.79-3.75,2.12l-2.78,4.62-5.26,1.22c-1.51.35-2.69,1.44-3.17,2.91s-.16,3.05.86,4.22l3.54,4.08-.47,5.37c-.14,1.54.53,3.01,1.78,3.92,1.25.91,2.86,1.09,4.28.49l4.97-2.11,4.97,2.11c.55.23,1.14.35,1.71.35.91,0,1.8-.29,2.57-.84,1.25-.91,1.92-2.38,1.78-3.92l-.47-5.38,3.54-4.08c1.02-1.17,1.33-2.75.85-4.22-.48-1.47-1.67-2.56-3.17-2.91h0ZM97.84,28.76c-.88,1.02-1.32,2.37-1.2,3.71l.38,4.34-4.01-1.7c-.62-.26-1.29-.4-1.95-.4s-1.33.13-1.95.4l-4.01,1.7.38-4.34c.12-1.34-.32-2.69-1.21-3.71l-2.86-3.29,4.24-.98c1.31-.3,2.47-1.14,3.16-2.29l2.25-3.74,2.25,3.74c.69,1.16,1.84,1.99,3.16,2.29l4.25.98-2.86,3.29h0Z"/>
      <text class="cls-1" transform="translate(26.53 174.6)"><tspan class="cls-3"><tspan x="0" y="0">Pl</tspan><tspan class="cls-4" x="23.02" y="0">a</tspan><tspan class="cls-9" x="36.55" y="0">y</tspan><tspan class="cls-11" x="49.1" y="0">-</tspan><tspan class="cls-8" x="58.14" y="0">g</tspan><tspan class="cls-7" x="74.01" y="0">r</tspan><tspan x="83.17" y="0">oup</tspan></tspan><tspan class="cls-12"><tspan x="-26.53" y="30.2">(</tspan><tspan class="cls-10" x="-19.79" y="30.2">A</tspan><tspan x="-5.25" y="30.2">ges 2 </tspan><tspan class="cls-5" x="53.04" y="30.2">t</tspan><tspan x="60.96" y="30.2">o 3 </tspan><tspan class="cls-13" x="95.86" y="30.2">ye</tspan><tspan x="118.68" y="30.2">a</tspan><tspan class="cls-6" x="130.64" y="30.2">r</tspan><tspan x="138.78" y="30.2">s)</tspan></tspan></text>
    </g>
  </g>
</svg>