<?xml version="1.0" encoding="UTF-8"?>
<svg id="Layer_2" data-name="Layer 2" xmlns="http://www.w3.org/2000/svg" viewBox="0 0 183 209.94">
  <defs>
    <style>
      .cls-1 {
        letter-spacing: -.01em;
      }

      .cls-2 {
        font-size: 23px;
      }

      .cls-3 {
        letter-spacing: 0em;
      }

      .cls-4 {
        letter-spacing: 0em;
      }

      .cls-5 {
        letter-spacing: -.02em;
      }

      .cls-6 {
        letter-spacing: 0em;
      }

      .cls-7 {
        letter-spacing: 0em;
      }

      .cls-8 {
        font-family: Montserrat-Medium, Montserrat;
        font-weight: 500;
      }

      .cls-8, .cls-9 {
        fill: #fbb913;
      }

      .cls-10 {
        letter-spacing: -.02em;
      }

      .cls-11 {
        font-size: 20px;
      }

      .cls-12 {
        letter-spacing: 0em;
      }

      .cls-9 {
        stroke-width: 0px;
      }
    </style>
  </defs>
  <g id="Layer_1-2" data-name="Layer 1">
    <g>
      <path class="cls-9" d="M51.37,22.82c-.81-.81-2.29-.81-3.1,0-.22.22-.37.46-.48.73s-.15.55-.15.84c0,.59.22,1.15.64,1.56.4.42.97.64,1.54.64s1.15-.22,1.56-.64.64-.97.64-1.56c0-.29-.04-.57-.15-.84-.11-.26-.29-.51-.48-.73ZM46.24,85.86c-3.48-1.52-7.51,0-9.12,3.48-.81,1.74-.88,3.68-.22,5.48.68,1.81,2.03,3.21,3.81,3.99,17.18,7.42,34.48,11.16,51.44,11.16s33.82-3.74,50.23-11.14c1.76-.79,3.08-2.22,3.74-4.05s.55-3.77-.31-5.5c-1.7-3.41-5.7-4.87-9.16-3.3-1.43.66-2.86,1.23-4.32,1.83l-5.77-14.93c-2.29-5.92-2.58-12.31-.84-17.99,1.37-4.45,1.61-8.35.81-11.67,3.3-1.43,4.47-1.03,4.76-.86,1.21.73,1.28,4.65,1.32,7.79l.04,1.87c.22,8.92,9.36,16.98,9.75,17.33.42.35.92.55,1.45.55.42,0,.84-.11,1.21-.37.84-.55,1.19-1.59.88-2.51-1.63-4.95-1.54-10.48-1.45-15.83.11-7,.22-13.61-3.21-19.09-1.45-2.36-3.61-3.81-6.25-4.25-6.1-1.01-13.34,3.74-16.27,5.92-5.28-3.02-9.31-2-14-.46-.02,0-.04.02-.07.02-.26.09-.53.18-.79.26-3.88,1.28-8.68,2.84-15.79,2.84-3.26,0-6.21-5.22-9.31-10.75-2.33-4.12-4.73-8.39-7.88-11.78-4.6-5-9.56-6.06-14-5.5C54.08,2.51,46.77.22,46.44.11c-.64-.22-1.3-.11-1.85.24-.53.33-.9.9-.99,1.54-.62,4.56.33,9.16.97,11.52-4.49,3.83-4.03,11.54-3.77,15.85.04.73.09,1.37.09,1.83,0,2.25-.59,7.68-.81,9.71-.26,2.14.88,4.18,2.86,5.09l3.48,1.59c2.16.99,4.73.29,6.1-1.65l3.88-5.46c-.18,11.69,3.79,22.17,5.02,25.19l-8.39,23.03c-2.25-.86-4.51-1.74-6.78-2.73ZM138.46,90c1.28-.57,2.77-.04,3.41,1.23.33.64.35,1.39.11,2.05-.24.68-.75,1.23-1.41,1.52-31.71,14.29-64.94,14.27-98.12-.07-.66-.29-1.19-.81-1.43-1.5-.26-.68-.22-1.41.09-2.05.44-.95,1.41-1.52,2.38-1.52.33,0,.68.07,1.01.2,3.02,1.3,5.99,2.44,8.98,3.5.04.02.07.07.13.07.07.02.11.02.18.02,23.76,8.39,46.7,9.14,69.54,2.18.02,0,.07,0,.09-.02,0,0,.02,0,.02-.02,2.8-.86,5.59-1.81,8.39-2.88.02,0,.07,0,.09-.02.02,0,.04-.02.07-.04,2.14-.77,4.29-1.65,6.47-2.64ZM64.93,92.37l4.27-10c1.15-2.66,2.93-5.13,5.31-7.31,2.58-2.38,3.85-4.51,4.49-6.19,10.68,4.16,19.05,1.19,22.97-.84,2.29,4.89,5.92,8.61,8.76,11.01,3.13,2.62,5.5,5.73,7.02,9.23l1.72,3.96c-17.95,4.98-36.02,5.02-54.54.13ZM134.36,32.17c1.39.22,2.42.95,3.21,2.22,2.73,4.4,2.64,10.37,2.53,16.71-.04,2.99-.09,6.06.13,9.12-1.65-2.42-3.1-5.37-3.17-8.3l-.04-1.83c-.07-4.89-.13-9.51-3.46-11.52-2.07-1.26-4.89-1.08-8.74.57-.64-.99-1.39-1.87-2.29-2.69,3.19-2.14,8.24-4.89,11.82-4.29ZM88.12,40.81c6.67,0,11.43-1.23,15.26-2.44v11.8c0,1.45-1.19,2.64-2.64,2.64h-16.51c-1.45,0-2.64-1.19-2.64-2.64v-12.46c1.89,1.92,3.99,3.1,6.54,3.1ZM52.47,9.43c-1.43.48-2.75,1.08-3.94,1.65-.33-1.5-.68-3.5-.73-5.61,1.59.84,3.48,2.14,4.67,3.96ZM65.86,66.24c.2-.55.18-1.15-.07-1.65-.07-.18-7.44-16.76-4.14-31.95.22-1.01-.31-2.07-1.26-2.49-.97-.42-2.07-.11-2.69.75l-8.79,12.4c-.15.22-.42.29-.68.18l-3.46-1.56c-.24-.13-.37-.35-.33-.62.4-3.59.86-8.02.86-10.22,0-.53-.04-1.26-.09-2.09-.24-3.79-.66-10.81,2.97-12.77,6.14-3.28,13.21-6.23,19.51.64,2.8,3.04,5.06,7.07,7.29,10.97.75,1.3,1.48,2.6,2.22,3.83v18.5c0,3.88,3.15,7.05,7.05,7.05h16.54c3.88,0,7.05-3.15,7.05-7.05v-13.21c4.16-1.23,6.91-1.28,11.58,2.55,3.44,2.84,4.16,7.57,2.16,14.09-2.03,6.63-1.7,14.05.95,20.87l5.77,14.93c-1.5.55-2.99,1.08-4.49,1.54l-1.94-4.45c-1.81-4.14-4.58-7.79-8.26-10.86-2.88-2.4-6.67-6.36-8.43-11.56-.22-.66-.77-1.19-1.43-1.39-.68-.2-1.41-.09-1.98.35-.4.31-9.93,7.27-23.38.73-.7-.35-1.52-.24-2.18.2-.64.44-1.01,1.23-.97,2,0,.02.09,2.42-3.66,5.86-2.84,2.62-4.98,5.57-6.36,8.81l-4.56,10.53c-1.17-.35-2.33-.7-3.5-1.1l8.7-23.8Z"/>
      <text class="cls-8" transform="translate(57.19 174.48)"><tspan class="cls-2"><tspan x="0" y="0">S</tspan><tspan class="cls-3" x="14.28" y="0">r</tspan><tspan x="23.48" y="0">. </tspan><tspan class="cls-10" x="34.89" y="0">K</tspan><tspan x="50.85" y="0">G</tspan></tspan><tspan class="cls-11"><tspan x="-57.19" y="30.2">(</tspan><tspan class="cls-6" x="-50.46" y="30.2">A</tspan><tspan x="-35.92" y="30.2">ges 5 </tspan><tspan class="cls-5" x="22.38" y="30.2">t</tspan><tspan class="cls-12" x="30.3" y="30.2">o 6 </tspan><tspan class="cls-1" x="66.1" y="30.2">ye</tspan><tspan class="cls-4" x="88.92" y="30.2">a</tspan><tspan class="cls-7" x="100.88" y="30.2">r</tspan><tspan x="109.02" y="30.2">s)</tspan></tspan></text>
    </g>
  </g>
</svg>