<?xml version="1.0" encoding="UTF-8"?>
<svg id="Layer_2" data-name="Layer 2" xmlns="http://www.w3.org/2000/svg" viewBox="0 0 162.86 209.94">
  <defs>
    <style>
      .cls-1 {
        letter-spacing: -.01em;
      }

      .cls-2 {
        font-size: 23px;
      }

      .cls-3 {
        letter-spacing: 0em;
      }

      .cls-4 {
        font-family: Montserrat-Medium, Montserrat;
        font-weight: 500;
      }

      .cls-4, .cls-5 {
        fill: #fbb913;
      }

      .cls-6 {
        letter-spacing: -.05em;
      }

      .cls-7 {
        letter-spacing: 0em;
      }

      .cls-8 {
        letter-spacing: 0em;
      }

      .cls-9 {
        font-size: 20px;
      }

      .cls-10 {
        letter-spacing: 0em;
      }

      .cls-5 {
        stroke-width: 0px;
      }
    </style>
  </defs>
  <g id="Layer_1-2" data-name="Layer 1">
    <g>
      <g>
        <path class="cls-5" d="M127.53,87.34c-3.45-3.45-9.03-3.45-12.48,0-3.45,3.45-3.45,9.03,0,12.48,3.45,3.45,9.03,3.45,12.48,0,3.45-3.45,3.45-9.03,0-12.48ZM125.03,97.31c-2.07,2.07-5.43,2.07-7.5,0-2.07-2.07-2.07-5.43,0-7.5,2.07-2.07,5.43-2.07,7.5,0,2.07,2.09,2.07,5.43,0,7.5Z"/>
        <path class="cls-5" d="M132.53,82.34c-4.89-4.89-12.17-5.9-18.08-3.1l-11.68-11.68,2.5-2.5-5.71-5.71c9.33-15,7.5-34.95-5.52-47.97-15.17-15.17-39.76-15.17-54.93,0-15.17,15.17-15.17,39.76,0,54.93,13.02,13.02,32.97,14.85,47.97,5.52l5.71,5.71,2.5-2.5,11.68,11.68c-2.82,5.9-1.79,13.19,3.1,18.08,6.21,6.21,16.27,6.21,22.47,0,6.18-6.18,6.18-16.25-.02-22.45ZM41.6,13.88C53.23,2.24,70.94.47,84.48,8.45l-48.31,48.31c-7.99-13.55-6.21-31.25,5.43-42.88ZM41.6,63.8c-1.27-1.27-2.39-2.65-3.43-4.05L87.47,10.43c1.4,1.03,2.78,2.15,4.05,3.43,1.27,1.27,2.39,2.65,3.43,4.05l-49.3,49.35c-1.4-1.06-2.78-2.15-4.05-3.45ZM48.64,69.23l48.31-48.31c7.99,13.53,6.21,31.25-5.43,42.88-11.61,11.64-29.33,13.42-42.88,5.43ZM92.77,72.55l-2.76-2.76c1.4-1.06,2.74-2.22,4.01-3.49,1.27-1.27,2.43-2.61,3.49-4.01l2.76,2.76-7.5,7.5ZM97.77,72.55l2.5-2.5,11.12,11.12c-.45.37-.91.75-1.31,1.19-.43.43-.82.86-1.19,1.31l-11.12-11.12ZM130.03,102.31c-4.83,4.83-12.65,4.83-17.48,0s-4.83-12.65,0-17.48c4.83-4.83,12.65-4.83,17.48,0s4.83,12.65,0,17.48Z"/>
        <rect class="cls-5" x="64.79" y="37.06" width="3.53" height="3.53" transform="translate(-7.96 58.44) rotate(-45)"/>
        <rect class="cls-5" x="71.04" y="30.84" width="3.53" height="3.53" transform="translate(-1.73 61.03) rotate(-45)"/>
        <rect class="cls-5" x="77.28" y="24.59" width="3.53" height="3.53" transform="translate(4.51 63.61) rotate(-45)"/>
        <rect class="cls-5" x="83.52" y="18.34" width="3.53" height="3.53" transform="translate(10.76 66.2) rotate(-45)"/>
        <rect class="cls-5" x="58.55" y="43.32" width="3.53" height="3.53" transform="translate(-14.22 55.85) rotate(-45)"/>
        <rect class="cls-5" x="52.31" y="49.56" width="3.53" height="3.53" transform="translate(-20.46 53.27) rotate(-45)"/>
        <rect class="cls-5" x="46.07" y="55.79" width="3.53" height="3.53" transform="translate(-26.69 50.68) rotate(-45)"/>
      </g>
      <text class="cls-4" transform="translate(37.36 174.48)"><tspan class="cls-2"><tspan class="cls-6" x="0" y="0">T</tspan><tspan x="12.24" y="0">oddler</tspan></tspan><tspan class="cls-9"><tspan x="-37.36" y="30.2">(</tspan><tspan class="cls-7" x="-30.62" y="30.2">A</tspan><tspan class="cls-3" x="-16.08" y="30.2">ges 1.5 </tspan><tspan class="cls-1" x="54.16" y="30.2">ye</tspan><tspan class="cls-8" x="76.98" y="30.2">a</tspan><tspan class="cls-10" x="88.94" y="30.2">r</tspan><tspan x="97.08" y="30.2">s+)</tspan></tspan></text>
    </g>
  </g>
</svg>