<?xml version="1.0" encoding="UTF-8"?>
<svg id="Layer_2" data-name="Layer 2" xmlns="http://www.w3.org/2000/svg" viewBox="0 0 215.25 180.65">
  <defs>
    <style>
      .cls-1 {
        letter-spacing: -.02em;
      }

      .cls-2 {
        font-family: Montserrat-Medium, Montserrat;
        font-size: 23px;
        font-weight: 500;
      }

      .cls-2, .cls-3 {
        fill: #f37021;
      }

      .cls-4 {
        letter-spacing: 0em;
      }

      .cls-5 {
        letter-spacing: 0em;
      }

      .cls-3 {
        stroke-width: 0px;
      }

      .cls-6 {
        letter-spacing: 0em;
      }
    </style>
  </defs>
  <g id="Layer_1-2" data-name="Layer 1">
    <text class="cls-2" transform="translate(0 174.6)"><tspan x="0" y="0">Eligibili</tspan><tspan class="cls-5" x="85.47" y="0">t</tspan><tspan class="cls-4" x="94.76" y="0">y C</tspan><tspan class="cls-6" x="130.43" y="0">r</tspan><tspan x="139.7" y="0">i</tspan><tspan class="cls-1" x="146.12" y="0">t</tspan><tspan class="cls-4" x="155.22" y="0">e</tspan><tspan class="cls-6" x="169.3" y="0">r</tspan><tspan x="178.57" y="0">ion</tspan></text>
    <path class="cls-3" d="M106.9,97.87c-1.04,0-1.9-.85-1.9-1.9s.85-1.9,1.9-1.9h35.51c1.04,0,1.9.85,1.9,1.9s-.85,1.9-1.9,1.9h-35.51ZM106.9,106.26c-1.04,0-1.9-.85-1.9-1.9s.85-1.9,1.9-1.9h35.51c1.04,0,1.9.85,1.9,1.9s-.85,1.9-1.9,1.9h-35.51ZM106.9,66.75c-1.04,0-1.9-.85-1.9-1.9s.85-1.9,1.9-1.9h35.51c1.04,0,1.9.85,1.9,1.9s-.85,1.9-1.9,1.9h-35.51ZM106.9,75.17c-1.04,0-1.9-.85-1.9-1.9s.85-1.9,1.9-1.9h35.51c1.04,0,1.9.85,1.9,1.9s-.85,1.9-1.9,1.9h-35.51ZM75.78,96.89c-.59-.88-.36-2.04.52-2.63.88-.59,2.04-.36,2.63.52l1.23,1.83,4.91-5.24c.71-.76,1.92-.81,2.68-.07.76.71.81,1.92.07,2.68l-6.48,6.88c-.88,1-2.35.83-3.01-.17l-2.56-3.8ZM81.9,81.71c7.97,0,14.42,6.45,14.42,14.42s-6.45,14.42-14.42,14.42-14.4-6.45-14.4-14.42,6.43-14.42,14.4-14.42ZM89.42,88.62c-4.15-4.15-10.86-4.15-15.01,0-4.15,4.15-4.15,10.86,0,15.01,4.15,4.15,10.86,4.15,15.01,0,4.15-4.13,4.15-10.86,0-15.01ZM75.78,65.77c-.59-.88-.36-2.04.52-2.63.88-.59,2.04-.36,2.63.52l1.23,1.83,4.91-5.24c.71-.76,1.92-.81,2.68-.07.76.71.81,1.92.07,2.68l-6.48,6.88c-.88,1-2.35.83-3.01-.17l-2.56-3.8ZM81.9,50.62c7.97,0,14.42,6.45,14.42,14.42s-6.45,14.42-14.42,14.42-14.4-6.45-14.4-14.42,6.43-14.42,14.4-14.42ZM89.42,57.52c-4.15-4.15-10.86-4.15-15.01,0-4.15,4.15-4.15,10.86,0,15.01s10.86,4.15,15.01,0c4.15-4.15,4.15-10.86,0-15.01ZM111.91,31.69l3.34-4.7c.62-.85,1.8-1.04,2.63-.43.85.62,1.04,1.8.43,2.66l-3.3,4.6c2.89,3.84.17,9.39-4.67,9.39-5.19,0-7.83-6.31-4.15-10.01,1.49-1.47,3.65-2.09,5.72-1.52h0ZM111.84,35.89c-1.3-1.3-3.53-.38-3.53,1.47s2.23,2.78,3.53,1.47c.81-.83.81-2.13,0-2.94h0ZM110.37,16.15c12.12,0,21.8,10.15,21.18,22.3h12.36v-3.72c0-.47-.4-.88-.88-.88-1.9,0-3.37.21-4.89-.97-.81-.62-1.4-1.49-1.68-2.51-.62-2.28-1.52-4.48-2.68-6.5-1.07-1.85-.76-4.15.74-5.67l1.45-1.45c.33-.33.33-.93,0-1.26l-3.72-3.72c-.33-.33-.93-.36-1.26,0l-1.45,1.45c-1.49,1.49-3.82,1.8-5.67.74-1.02-.59-2.06-1.09-3.15-1.57-1.07-.45-2.18-.83-3.34-1.14-2.06-.55-3.49-2.4-3.49-4.53v-2.02c0-.47-.4-.88-.9-.88h-5.24c-.5,0-.9.4-.9.88v2.04c0,2.13-1.42,3.98-3.49,4.53-2.28.62-4.46,1.52-6.5,2.68-1.85,1.07-4.15.76-5.67-.74l-1.45-1.45c-.33-.33-.93-.33-1.26,0l-3.7,3.72c-.17.17-.26.4-.26.64,0,.21.09.45.26.62l1.45,1.45c1.52,1.52,1.83,3.8.74,5.65-1.19,2.02-2.09,4.2-2.68,6.5-.55,2.06-2.4,3.49-4.53,3.49h-2.04c-.5,0-.9.4-.9.9v3.72h12.36c-.57-12.14,9.08-22.3,21.21-22.3h0ZM131,42.22c-2.23,9.44-10.7,16.32-20.64,16.32s-18.41-6.85-20.64-16.32h-14.78c-1.02,0-1.87-.81-1.9-1.83l-.02-.43v-5.24c0-2.59,2.11-4.7,4.7-4.7h2.04c.43,0,.76-.24.85-.66.69-2.59,1.73-5.08,3.08-7.4.21-.38.17-.78-.14-1.09l-1.45-1.45c-.9-.9-1.38-2.11-1.38-3.3s.47-2.44,1.38-3.32l3.7-3.72c1.83-1.83,4.79-1.83,6.62,0l1.49,1.49c.26.24.69.28,1.02.09,2.32-1.35,4.81-2.37,7.42-3.08.4-.12.66-.43.66-.88v-2.02c0-2.59,2.11-4.7,4.7-4.7h5.27c2.59,0,4.7,2.11,4.7,4.7,0,3.91-.5,2.09,4.46,4.2,1.23.52,2.44,1.11,3.61,1.78.38.21.78.17,1.09-.14,1.42-1.42,2.47-2.82,4.74-2.82,1.21,0,2.4.45,3.32,1.38l3.72,3.72c1.83,1.83,1.83,4.79,0,6.62l-1.45,1.45c-.31.31-.36.71-.14,1.09,1.35,2.32,2.37,4.81,3.08,7.4.12.43.43.66.88.66h2.04c2.59,0,4.7,2.11,4.7,4.7v5.27l-.05.62c-.12.95-.95,1.64-1.87,1.64h-14.82v-.02ZM122.68,25.05c-6.81-6.81-17.81-6.81-24.62,0-6.81,6.81-6.81,17.81,0,24.62,6.81,6.81,17.81,6.81,24.62,0,6.78-6.81,6.83-17.81,0-24.62Z"/>
  </g>
</svg>