<?xml version="1.0" encoding="UTF-8"?>
<svg id="Layer_2" data-name="Layer 2" xmlns="http://www.w3.org/2000/svg" viewBox="0 0 219.07 180.53">
  <defs>
    <style>
      .cls-1 {
        letter-spacing: 0em;
      }

      .cls-2 {
        letter-spacing: 0em;
      }

      .cls-3 {
        letter-spacing: 0em;
      }

      .cls-4 {
        font-family: Montserrat-Medium, Montserrat;
        font-size: 23px;
        font-weight: 500;
      }

      .cls-4, .cls-5 {
        fill: #fbb913;
      }

      .cls-6 {
        letter-spacing: -.01em;
      }

      .cls-5 {
        stroke-width: 0px;
      }

      .cls-7 {
        letter-spacing: -.02em;
      }
    </style>
  </defs>
  <g id="Layer_1-2" data-name="Layer 1">
    <text class="cls-4" transform="translate(.02 174.48)"><tspan class="cls-1" x="0" y="0">A</tspan><tspan x="16.72" y="0">dmission </tspan><tspan class="cls-7" x="129.05" y="0">P</tspan><tspan class="cls-6" x="145.22" y="0">r</tspan><tspan class="cls-3" x="154.37" y="0">o</tspan><tspan class="cls-2" x="168.98" y="0">c</tspan><tspan x="181.93" y="0">ess</tspan></text>
    <path class="cls-5" d="M62.14,0c-1.12,0-2.04.91-2.04,2.04v1.16c-1.28.37-2.51.88-3.68,1.52l-.81-.81h0c-.79-.8-2.09-.8-2.88,0l-4.43,4.42h0c-.38.39-.6.91-.6,1.45s.21,1.06.6,1.44l.81.81c-.64,1.17-1.15,2.4-1.52,3.68h-1.16,0c-1.12,0-2.04.91-2.04,2.03v6.26c0,1.12.91,2.04,2.04,2.04h1.16c.37,1.28.89,2.51,1.52,3.68l-.81.81h0c-.38.38-.6.9-.6,1.44s.21,1.06.6,1.44l4.43,4.42h0c.79.8,2.09.8,2.88,0l.81-.81c1.17.64,2.4,1.15,3.68,1.52v1.16h0c0,1.12.91,2.03,2.04,2.03h6.26c1.12,0,2.04-.91,2.04-2.04v-1.16c1.28-.37,2.51-.88,3.68-1.52l.81.81h0c.8.8,2.09.8,2.88,0l4.43-4.42h0c.38-.39.6-.9.6-1.45s-.21-1.06-.6-1.44l-.81-.81c.64-1.17,1.15-2.4,1.52-3.68h1.16,0c1.12,0,2.04-.91,2.04-2.03v-6.26c0-1.12-.91-2.04-2.04-2.04h-1.15c-.37-1.28-.89-2.51-1.53-3.68l.81-.81h0c.38-.38.6-.9.6-1.44s-.21-1.06-.6-1.44l-4.43-4.42h0c-.79-.8-2.08-.8-2.88,0l-.81.81c-1.17-.64-2.41-1.15-3.69-1.53v-1.15h0C70.43.91,69.52,0,68.4,0h-6.26ZM64.17,4.07h2.19v.71c0,.97.69,1.81,1.65,2,1.89.37,3.69,1.11,5.29,2.19h0c.8.54,1.88.43,2.58-.25l.5-.5,1.55,1.55-.5.5h0c-.69.69-.79,1.77-.25,2.58,1.08,1.6,1.82,3.39,2.19,5.28h0c.19.95,1.02,1.64,2,1.64h.71v2.18h-.72c-.98,0-1.82.69-2,1.65-.37,1.89-1.11,3.68-2.18,5.28h0c-.08.13-.15.25-.2.39-.02.04-.03.08-.04.12-.03.1-.06.19-.08.3v.16c0,.09,0,.18,0,.27v.16c.01.09.03.18.05.26.02.05.03.11.05.16.03.08.07.16.11.24.03.05.05.1.08.14.05.08.11.16.17.23.03.04.06.08.09.11.01.02.03.03.04.04l.5.5-1.55,1.55-.5-.5h0c-.69-.69-1.77-.79-2.58-.25-1.6,1.07-3.39,1.81-5.28,2.18-.96.19-1.65,1.02-1.65,2v.72h-2.19v-.72c0-.98-.69-1.81-1.65-2-1.89-.37-3.68-1.1-5.28-2.18-.81-.54-1.89-.44-2.58.25l-.5.5-1.55-1.55.5-.5h0s.03-.03.04-.04c.02-.02.03-.03.05-.05.02-.02.04-.04.05-.06.02-.02.03-.03.04-.05.02-.02.04-.04.05-.06.02-.02.03-.04.04-.05.02-.03.03-.05.05-.08.02-.02.03-.03.04-.05.02-.04.05-.08.07-.13.01-.02.03-.03.04-.05.02-.03.03-.06.04-.08.01-.02.03-.04.04-.06.02-.03.03-.05.04-.08v-.07s.03-.05.04-.07v-.44s0-.04,0-.06v-.48s-.03-.05-.04-.08v-.06s-.03-.05-.04-.08c-.02-.02-.03-.04-.04-.06-.01-.03-.03-.05-.04-.08-.01-.02-.03-.04-.04-.06-.02-.03-.03-.06-.04-.08-.02-.02-.03-.03-.04-.05-.02-.04-.05-.08-.07-.12,0,0,0,0,0,0-1.07-1.6-1.82-3.39-2.18-5.28h0c-.19-.96-1.02-1.65-2-1.65h-.72v-2.18h.72c.98,0,1.81-.69,2-1.65.37-1.89,1.11-3.68,2.18-5.28h0c.54-.81.44-1.89-.25-2.58l-.5-.5,1.55-1.55.5.5c.69.69,1.77.79,2.57.25,1.6-1.07,3.39-1.81,5.28-2.18h0c.96-.19,1.65-1.02,1.65-2l-.03-.7ZM96.03,7.11c-2.95,0-5.39,2.44-5.39,5.39v16.7c0,2.95,2.44,5.39,5.39,5.39h31.66c2.95,0,5.39-2.44,5.39-5.39V12.5c0-2.95-2.44-5.39-5.39-5.39h-31.66ZM65.27,10.25c-5.84,0-10.62,4.77-10.62,10.61s4.78,10.61,10.62,10.61,10.61-4.77,10.61-10.61-4.78-10.61-10.61-10.61ZM96.03,11.19h31.66c.77,0,1.32.55,1.32,1.32v16.7c0,.76-.55,1.32-1.32,1.32h-31.66c-.77,0-1.32-.55-1.32-1.32V12.5c0-.76.56-1.32,1.33-1.32h0ZM65.27,14.32c3.64,0,6.54,2.9,6.54,6.53s-2.91,6.53-6.54,6.53-6.54-2.9-6.54-6.53,2.91-6.53,6.54-6.53ZM99.57,18.82c-1.12,0-2.04.91-2.04,2.04s.91,2.04,2.04,2.04h24.6c1.12,0,2.04-.91,2.04-2.04,0-.54-.21-1.06-.6-1.44-.38-.38-.9-.6-1.44-.6h-24.6ZM138.84,18.82c-1.12,0-2.04.91-2.04,2.04s.91,2.04,2.04,2.04h10.59c2.81,0,5.01,2.2,5.01,5.01v20.97c0,2.81-2.2,5.01-5.01,5.01h-3.98l.92-.62c.93-.64,1.17-1.9.53-2.83-.31-.45-.77-.75-1.3-.85s-1.08.02-1.53.32l-6.37,4.34c-.09.07-.18.14-.26.22-.02.02-.05.04-.06.06-.08.08-.15.17-.21.26-.07.1-.12.2-.17.31-.01.03-.03.06-.04.08-.04.11-.08.21-.1.33-.03.12-.04.23-.04.35v.09c0,.12.02.23.04.35.03.11.06.22.1.33.01.03.03.06.04.08.05.11.1.21.17.31v.04c.06.09.13.18.21.26.02.02.04.04.06.06.08.08.17.15.26.21l6.37,4.34c.45.31,1,.42,1.53.32.53-.1,1-.41,1.3-.85s.42-1,.32-1.53c-.1-.53-.41-1-.85-1.3l-.92-.62h3.98c5,0,9.08-4.08,9.08-9.08v-20.97c0-5-4.09-9.08-9.08-9.08l-10.59.03ZM96.04,42.17c-2.95,0-5.39,2.44-5.39,5.39v16.7c0,2.95,2.44,5.39,5.39,5.39h31.66c2.95,0,5.39-2.44,5.39-5.39v-16.7c0-2.95-2.44-5.39-5.39-5.39h-31.66ZM96.04,46.24h31.66c.77,0,1.32.55,1.32,1.32v16.7c0,.76-.55,1.32-1.32,1.32h-31.66c-.77,0-1.32-.55-1.32-1.32v-16.7c0-.76.55-1.32,1.32-1.32ZM74.31,53.88c-5,0-9.08,4.08-9.08,9.08v20.97c0,5,4.09,9.08,9.08,9.08h3.98l-.92.62h0c-.93.64-1.17,1.9-.53,2.83.63.93,1.9,1.17,2.83.54l6.37-4.34c.1-.07.2-.15.29-.24.09-.09.17-.19.24-.3.07-.11.14-.22.19-.35.05-.12.08-.24.11-.36.03-.13.04-.26.04-.39h0c0-.13-.02-.26-.04-.39-.03-.12-.06-.25-.11-.37-.05-.12-.12-.23-.19-.34s-.15-.2-.24-.3c-.09-.09-.19-.17-.29-.24l-6.37-4.34c-.45-.31-1-.42-1.53-.32-.53.1-1,.41-1.3.85s-.42,1-.32,1.53c.1.53.41,1,.85,1.3l.92.62h-3.98c-2.81,0-5.01-2.2-5.01-5.01v-20.97c0-2.81,2.2-5.01,5.01-5.01h10.59c.54,0,1.06-.21,1.44-.6.38-.38.6-.9.6-1.44,0-1.12-.91-2.04-2.04-2.04l-10.59-.1ZM99.57,53.88c-1.12,0-2.04.91-2.04,2.04s.91,2.04,2.04,2.04h24.6c.54,0,1.06-.21,1.44-.6.38-.38.6-.9.6-1.44,0-1.12-.91-2.04-2.04-2.04h-24.6ZM156.14,72.45c-10.21,0-18.54,8.32-18.54,18.52s8.33,18.52,18.54,18.52,18.54-8.32,18.54-18.52-8.33-18.52-18.54-18.52ZM156.14,76.52c8.02,0,14.47,6.45,14.47,14.45s-6.45,14.45-14.47,14.45-14.47-6.45-14.47-14.45,6.45-14.45,14.47-14.45ZM96.04,77.23c-2.95,0-5.39,2.44-5.39,5.39v16.7c0,2.95,2.44,5.39,5.39,5.39h31.66c2.95,0,5.39-2.44,5.39-5.39v-16.7c0-2.95-2.44-5.39-5.39-5.39h-31.66ZM96.04,81.3h31.66c.77,0,1.32.55,1.32,1.32v16.7c0,.76-.55,1.32-1.32,1.32h-31.66c-.77,0-1.32-.55-1.32-1.32v-16.7c0-.76.55-1.32,1.32-1.32ZM162.63,84.69c-.54.02-1.05.24-1.43.63l-6.62,6.95-3.51-3.69c-.77-.81-2.06-.84-2.88-.07-.39.37-.62.88-.63,1.43-.02.54.19,1.06.56,1.45l4.99,5.24c.39.41.92.63,1.48.63s1.09-.22,1.47-.63l8.09-8.5c.37-.39.58-.91.56-1.45-.01-.54-.24-1.05-.63-1.43-.39-.37-.92-.58-1.46-.56h0ZM99.57,88.94c-1.12,0-2.04.91-2.04,2.04s.91,2.04,2.04,2.04h24.6c1.12,0,2.04-.91,2.04-2.04,0-.54-.21-1.06-.6-1.44-.38-.38-.9-.6-1.44-.6h-24.6Z"/>
  </g>
</svg>