<?xml version="1.0" encoding="UTF-8"?>
<svg id="Layer_2" data-name="Layer 2" xmlns="http://www.w3.org/2000/svg" viewBox="0 0 96.3 111.53">
  <defs>
    <style>
      .cls-1 {
        fill: #fbb913;
        stroke-width: 0px;
      }
    </style>
  </defs>
  <g id="Layer_1-2" data-name="Layer 1">
    <path class="cls-1" d="M94.26,21.9l-4.33-2.79c-.99-.63-2.2-.83-3.34-.59-1.16.26-2.16.96-2.79,1.96l-1.97,3.11-1.96-1.03-.37-.19h0c-.73-.47-1.59-.71-2.44-.7-.3,0-.61.03-.91.1-1.16.26-2.17.96-2.8,1.96l-12.71,19.7c-1.31,2.09-.7,4.84,1.37,6.16l2.3,1.5-17.19,26.97c-.14.24-.21.51-.23.79l-.09,10.43c0,.39.16.77.43,1.04.29.29.66.44,1.06.44.21.03.43,0,.64-.07l9.4-4.47c.24-.13.46-.31.61-.56l1-1.57,17.07-26.84,2.94-4.63,10.16-15.97,5.5-8.64c1.3-2.07.7-4.79-1.36-6.11ZM63.59,47.09c-.43-.29-.67-.76-.67-1.24,0-.27.07-.54.23-.79l12.71-19.96c.21-.34.54-.57.94-.66.1-.01.2-.01.31,0,.27,0,.56.09.8.24l2.3,1.49-.11.21-1.8,2.8-12.39,19.39-2.33-1.49ZM49.79,86.93l.07-7.57,6.77,4.3-6.84,3.27ZM58.23,81.16l-6.8-4.31,28.59-44.86,6.8,4.31-28.59,44.86ZM93.12,26.4l-4.71,7.44-6.74-4.37,1.93-2.97,2.73-4.43c.21-.31.54-.54.91-.64.37-.07.77,0,1.1.2l4.34,2.77c.33.2.56.53.64.91.07.37.01.76-.2,1.09ZM46.8,10.33c0,.83.66,1.5,1.49,1.5h21.37c.83,0,1.5-.67,1.5-1.5s-.67-1.49-1.5-1.49h-21.4c-.83,0-1.5.67-1.5,1.49h.04ZM46.8,16.29c0,.83.66,1.49,1.49,1.49h21.37c.83,0,1.5-.66,1.5-1.49s-.67-1.49-1.5-1.49h-21.4c-.83,0-1.5.66-1.5,1.49h.04ZM46.8,22.14c-.01.39.14.79.41,1.07.29.29.67.44,1.07.44h13.91c.81,0,1.49-.67,1.49-1.49s-.67-1.5-1.49-1.5h-13.94c-.83,0-1.5.67-1.5,1.5h.01l.03-.03ZM47.2,29.14c.27.3.67.46,1.09.46h10.93c.83,0,1.49-.66,1.49-1.49s-.66-1.49-1.49-1.49h-10.96c-.83,0-1.5.67-1.5,1.49h.01l.03-.09c-.03.41.11.81.4,1.11ZM34.86,8.84H10.23c-.83,0-1.49.67-1.49,1.5v24.59c0,.4.16.79.43,1.06.29.29.67.44,1.06.44h24.63c.4,0,.77-.16,1.06-.44s.43-.66.43-1.06V10.33c0-.39-.16-.77-.43-1.04-.29-.29-.66-.44-1.06-.44ZM33.37,33.41H11.71V11.83h21.66v21.59ZM34.49,78.93H10.23c-.83,0-1.49.66-1.49,1.49s.66,1.49,1.49,1.49h24.26c.4,0,.77-.16,1.06-.44s.43-.66.43-1.04v-.3c-.14-.7-.77-1.21-1.49-1.19ZM34.49,72.97H10.23c-.83,0-1.49.66-1.49,1.49s.66,1.49,1.49,1.49h24.26c.4,0,.77-.16,1.06-.43.27-.29.43-.66.43-1.06v-.24c-.11-.71-.76-1.26-1.49-1.24ZM34.49,67.01H10.23c-.83,0-1.49.67-1.49,1.49s.66,1.5,1.49,1.5h24.26c.4,0,.77-.16,1.06-.44s.43-.66.43-1.06v-.13c-.06-.77-.71-1.36-1.49-1.36ZM34.49,61.07H10.23c-.83,0-1.49.66-1.49,1.49s.66,1.49,1.49,1.49h24.26c.4,0,.77-.16,1.06-.44s.43-.66.43-1.04v-.14c-.06-.76-.71-1.36-1.49-1.34ZM34.49,55.19H10.23c-.83,0-1.49.67-1.49,1.49s.66,1.5,1.49,1.5h24.26c.4,0,.77-.16,1.06-.44s.43-.66.43-1.06v-.11c-.06-.77-.7-1.37-1.49-1.37ZM34.49,49.24H10.23c-.83,0-1.49.66-1.49,1.47s.66,1.5,1.49,1.5h24.26c.4,0,.77-.16,1.06-.44s.43-.66.43-1.06v-.04c-.03-.8-.69-1.43-1.49-1.43ZM34.49,43.29H10.23c-.83,0-1.49.66-1.49,1.49s.66,1.49,1.49,1.49h24.26c.4,0,.77-.16,1.06-.44.27-.27.43-.66.43-1.04s-.16-.77-.43-1.06c-.29-.27-.66-.43-1.06-.43ZM34.49,78.93H10.23c-.83,0-1.49.66-1.49,1.49s.66,1.49,1.49,1.49h24.26c.4,0,.77-.16,1.06-.44s.43-.66.43-1.04v-.3c-.14-.7-.77-1.21-1.49-1.19ZM34.49,72.97H10.23c-.83,0-1.49.66-1.49,1.49s.66,1.49,1.49,1.49h24.26c.4,0,.77-.16,1.06-.43.27-.29.43-.66.43-1.06v-.24c-.11-.71-.76-1.26-1.49-1.24ZM34.49,67.01H10.23c-.83,0-1.49.67-1.49,1.49s.66,1.5,1.49,1.5h24.26c.4,0,.77-.16,1.06-.44s.43-.66.43-1.06v-.13c-.06-.77-.71-1.36-1.49-1.36ZM34.49,61.07H10.23c-.83,0-1.49.66-1.49,1.49s.66,1.49,1.49,1.49h24.26c.4,0,.77-.16,1.06-.44s.43-.66.43-1.04v-.14c-.06-.76-.71-1.36-1.49-1.34ZM34.49,55.19H10.23c-.83,0-1.49.67-1.49,1.49s.66,1.5,1.49,1.5h24.26c.4,0,.77-.16,1.06-.44s.43-.66.43-1.06v-.11c-.06-.77-.7-1.37-1.49-1.37ZM34.49,49.24H10.23c-.83,0-1.49.66-1.49,1.47s.66,1.5,1.49,1.5h24.26c.4,0,.77-.16,1.06-.44s.43-.66.43-1.06v-.04c-.03-.8-.69-1.43-1.49-1.43ZM35.54,43.71c-.29-.27-.66-.43-1.06-.43H10.23c-.83,0-1.49.66-1.49,1.49s.66,1.49,1.49,1.49h24.26c.4,0,.77-.16,1.06-.44.27-.27.43-.66.43-1.04s-.16-.77-.43-1.06ZM59.21,26.63h-10.96c-.83,0-1.5.67-1.5,1.49h.01l.03-.09c-.03.41.11.81.4,1.11.27.3.67.46,1.09.46h10.93c.83,0,1.49-.66,1.49-1.49s-.66-1.49-1.49-1.49ZM62.2,20.67h-13.94c-.83,0-1.5.67-1.5,1.5h.01l.03-.03c-.01.39.14.79.41,1.07.29.29.67.44,1.07.44h13.91c.81,0,1.49-.67,1.49-1.49s-.67-1.5-1.49-1.5ZM69.66,14.8h-21.4c-.83,0-1.5.66-1.5,1.49h.04c0,.83.66,1.49,1.49,1.49h21.37c.83,0,1.5-.66,1.5-1.49s-.67-1.49-1.5-1.49ZM69.66,8.84h-21.4c-.83,0-1.5.67-1.5,1.49h.04c0,.83.66,1.5,1.49,1.5h21.37c.83,0,1.5-.67,1.5-1.5s-.67-1.49-1.5-1.49ZM35.91,9.29c-.29-.29-.66-.44-1.06-.44H10.23c-.83,0-1.49.67-1.49,1.5v24.59c0,.4.16.79.43,1.06.29.29.67.44,1.06.44h24.63c.4,0,.77-.16,1.06-.44s.43-.66.43-1.06V10.33c0-.39-.16-.77-.43-1.04ZM33.37,33.41H11.71V11.83h21.66v21.59ZM77.06,21.89c0,.83.67,1.5,1.49,1.5.59,0,1.09-.33,1.33-.81.11-.2.17-.44.17-.69V5.94c0-1.57-.63-3.09-1.74-4.2-1.11-1.13-2.64-1.74-4.21-1.74H5.87C2.9,0,.44,2.16,0,5v100.57c0,1.59.61,3.1,1.73,4.21,1.13,1.11,2.64,1.74,4.21,1.74h53.21c.4,0,.79-.16,1.06-.43l19.34-19.36c.29-.27.44-.66.44-1.06v-37.73c0-.11-.01-.23-.04-.33-.14-.67-.74-1.16-1.46-1.16-.81,0-1.49.66-1.49,1.49v34.66h-14.99c-3.29,0-5.94,2.67-5.94,5.96v14.97H5.87c-1.64,0-2.97-1.33-2.97-2.97V5.94c0-1.64,1.33-2.97,2.97-2.97h68.21c.79,0,1.54.31,2.1.87s.87,1.31.87,2.1v15.94ZM59.1,93.53c.03-1.61,1.33-2.91,2.93-2.94h0s14.5-.01,14.5-.01l-17.43,17.39v-14.43Z"/>
  </g>
</svg>