<?xml version="1.0" encoding="UTF-8"?>
<svg id="Layer_2" data-name="Layer 2" xmlns="http://www.w3.org/2000/svg" viewBox="0 0 300.83 73.13">
  <defs>
    <style>
      .cls-1 {
        fill: #fff;
        stroke-width: 0px;
      }
    </style>
  </defs>
  <g id="Layer_1-2" data-name="Layer 1">
    <g>
      <g>
        <path class="cls-1" d="M279.87,24.22l-20.14,21.82-10.57-10.56c-1.1-1.1-2.88-1.1-3.97,0-1.1,1.1-1.1,2.88,0,3.97l12.64,12.64c.53.53,1.24.82,1.99.82h.05c.77-.02,1.49-.34,2.01-.9l22.13-23.97c1.06-1.15.98-2.92-.16-3.97-1.14-1.06-2.92-.98-3.97.16h0ZM264.26,0c-19.38,0-35.29,15.17-36.49,34.27h-38.8c-1.15-9.77-9.47-17.39-19.54-17.39s-18.41,7.62-19.54,17.39h-35.64c-1.15-9.77-9.47-17.39-19.54-17.39-10.86,0-19.69,8.83-19.69,19.69s8.83,19.69,19.69,19.69c9.72,0,17.82-7.09,19.4-16.36h35.93c1.58,9.28,9.68,16.36,19.4,16.36s17.82-7.09,19.4-16.36h39.02c1.68,18.61,17.37,33.24,36.41,33.24,20.16,0,36.57-16.4,36.57-36.57S284.43,0,264.27,0h0ZM94.7,50.63c-7.75,0-14.06-6.31-14.06-14.06s6.31-14.06,14.06-14.06,14.06,6.31,14.06,14.06-6.31,14.06-14.06,14.06ZM169.43,50.63c-7.75,0-14.06-6.31-14.06-14.06s6.31-14.06,14.06-14.06,14.06,6.31,14.06,14.06-6.31,14.06-14.06,14.06ZM264.26,67.5c-17.06,0-30.94-13.88-30.94-30.94s13.88-30.94,30.94-30.94,30.94,13.88,30.94,30.94-13.88,30.94-30.94,30.94Z"/>
        <path class="cls-1" d="M74.87,34.27h-35.64c-1.15-9.77-9.47-17.39-19.54-17.39C8.83,16.88,0,25.71,0,36.57s8.83,19.69,19.69,19.69c9.72,0,17.82-7.09,19.4-16.36h35.93l-.15-5.63ZM19.68,50.63c-7.75,0-14.06-6.31-14.06-14.06s6.31-14.06,14.06-14.06,14.06,6.31,14.06,14.06-6.31,14.06-14.06,14.06Z"/>
      </g>
      <path class="cls-1" d="M19.01,43.6v-13l1.1,1.2h-4.1v-2.2h5.58v14h-2.58Z"/>
      <path class="cls-1" d="M89.58,43.6v-1.74l5.58-5.28c.45-.44.79-.83,1.02-1.16s.38-.64.46-.93c.08-.29.12-.56.12-.81,0-.64-.22-1.14-.67-1.49s-1.1-.53-1.97-.53c-.67,0-1.28.12-1.83.36-.55.24-1.03.6-1.43,1.08l-1.82-1.38c.55-.73,1.28-1.3,2.21-1.71.93-.41,1.96-.61,3.11-.61,1.01,0,1.89.16,2.64.49.75.33,1.33.79,1.74,1.39.41.6.62,1.31.62,2.12,0,.47-.06.92-.18,1.37-.12.45-.35.92-.68,1.42-.33.5-.82,1.06-1.46,1.67l-4.8,4.52-.54-.98h8.2v2.2h-10.32Z"/>
      <path class="cls-1" d="M169.87,43.8c-.97,0-1.93-.14-2.87-.42s-1.73-.68-2.37-1.2l1.1-2.02c.51.41,1.13.75,1.86,1,.73.25,1.49.38,2.26.38.92,0,1.65-.19,2.18-.57.53-.38.8-.9.8-1.55s-.24-1.15-.73-1.52c-.49-.37-1.26-.56-2.33-.56h-1.28v-1.78l4-4.76.36,1h-7.52v-2.2h9.52v1.74l-4,4.74-1.36-.78h.8c1.71,0,2.99.38,3.85,1.15.86.77,1.29,1.75,1.29,2.95,0,.79-.2,1.52-.6,2.19-.4.67-1.01,1.21-1.83,1.61-.82.4-1.86.6-3.13.6Z"/>
    </g>
  </g>
</svg>