<?xml version="1.0" encoding="UTF-8"?>
<svg id="Layer_2" data-name="Layer 2" xmlns="http://www.w3.org/2000/svg" viewBox="0 0 116.2 110.14">
  <defs>
    <style>
      .cls-1 {
        fill: #d1d3d4;
        stroke-width: 0px;
      }
    </style>
  </defs>
  <g id="Layer_1-2" data-name="Layer 1">
    <path class="cls-1" d="M31.18,110.14H6.95c-3.84,0-6.95-3.11-6.95-6.95v-41.09c0-3.84,3.11-6.95,6.95-6.95h24.23c2.74,0,5.23,1.62,6.35,4.12l12.92-12.92V1.93C50.45.87,51.31,0,52.38,0c0,0,0,0,0,0h49.06c1.07,0,1.93.86,1.93,1.93h0v56.13c.57,0,1.13.04,1.69.15,3.89.73,6.55,4.36,6.07,8.29-.11,1.16-.47,2.28-1.05,3.29,4.16.88,6.83,4.96,5.95,9.13-.63,2.97-2.94,5.3-5.91,5.94,2.22,3.63,1.07,8.37-2.56,10.59-1.21.74-2.6,1.13-4.02,1.13h-1.22c.63,1.18.96,2.5.96,3.84.12,4.13-3.14,9.6-7.27,9.72-.11,0-.21,0-.32,0h-51.8c-.32,0-.64-.08-.93-.24l-5.1-4.81c-.85,2.98-3.58,5.04-6.68,5.05ZM6.95,59.01c-1.7,0-3.09,1.38-3.09,3.09v41.09c0,1.7,1.38,3.09,3.09,3.09h24.23c1.7,0,3.09-1.38,3.09-3.09v-41.09c0-1.7-1.38-3.09-3.09-3.09H6.95ZM44.39,106.27h51.28c2.12-.05,3.8-3.82,3.76-5.94-.05-2.06-1.71-3.72-3.77-3.76h-14.92c-1.07,0-1.93-.86-1.93-1.93s.86-1.93,1.93-1.93h22.82c2.12,0,3.84-1.73,3.83-3.85,0-2.11-1.72-3.82-3.83-3.83h-22.82c-1.07,0-1.93-.86-1.93-1.93s.86-1.93,1.93-1.93h27.76c2.12,0,3.85-1.71,3.85-3.83,0-2.12-1.71-3.85-3.83-3.85,0,0-.02,0-.02,0h-27.76c-1.07,0-1.94-.86-1.94-1.93,0-1.07.86-1.94,1.93-1.94h22.83c1.98.05,3.64-1.49,3.73-3.48.29-1.99-1.07-3.84-3.05-4.16-.64-.06-1.27-.08-1.91-.06-.35,0-.67,0-.91,0h-49.03c-1.07,0-1.93-.86-1.93-1.93h0v-8.19l-12.32,12.32v36.71l6.26,5.44ZM92.75,58.06h6.76V3.86h-45.19v54.2h6.77V20.76c0-1.07.86-1.93,1.93-1.93h0c3.45,0,6.25-2.8,6.25-6.25,0-1.07.86-1.93,1.93-1.93h11.39c1.07,0,1.93.86,1.93,1.93h0c.02,3.47,2.83,6.26,6.3,6.25,1.07,0,1.93.86,1.93,1.93h0v37.3ZM64.95,58.06h23.94V22.51c-4.06-.78-7.24-3.95-8.04-8h-7.9c-.79,4.04-3.95,7.2-8,8v35.55ZM76.91,49.02c-3.08.09-5.65-2.34-5.74-5.43,0-.08,0-.16,0-.23v-.06c-.04-3.08,2.42-5.62,5.51-5.66.08,0,.16,0,.24,0h0c3.14-.04,5.72,2.48,5.75,5.62.04,3.14-2.48,5.72-5.62,5.75-.04,0-.09,0-.13,0ZM75.03,43.33c.03,1.04.9,1.86,1.93,1.83,1.01-.03,1.82-.85,1.83-1.86.02-.97-.75-1.78-1.72-1.8-.05,0-.11,0-.16,0h0c-.98-.06-1.82.69-1.88,1.67,0,.05,0,.1,0,.16Z"/>
  </g>
</svg>